<svg xmlns="http://www.w3.org/2000/svg" width="24" height="24" viewBox="0 0 24 24" fill="none" stroke="currentColor" stroke-width="2" stroke-linecap="round" stroke-linejoin="round">
  <path d="m22 13.29-3.33-10a.42.42 0 0 0-.14-.18.38.38 0 0 0-.22-.11.39.39 0 0 0-.23.07.42.42 0 0 0-.14.18l-2.26 6.67H8.32L6.06 3.26a.42.42 0 0 0-.14-.18.38.38 0 0 0-.22-.11.39.39 0 0 0-.23.07.42.42 0 0 0-.14.18l-3.33 10a.42.42 0 0 0 .07.43.42.42 0 0 0 .38.17h6.3l2.67 8a.42.42 0 0 0 .14.18.38.38 0 0 0 .22.11.39.39 0 0 0 .23-.07.42.42 0 0 0 .14-.18l2.67-8h6.3a.42.42 0 0 0 .38-.17.42.42 0 0 0 .07-.43z"/>
</svg>
